<svg xmlns="http://www.w3.org/2000/svg" viewBox="0 0 64 64" role="img" aria-labelledby="title desc">
  <title id="title">Memory Chat Companion favicon</title>
  <desc id="desc">A chat bubble with memory nodes and a spark to represent an AI companion that remembers context.</desc>
  <defs>
    <linearGradient id="bg" x1="0" y1="0" x2="1" y2="1">
      <stop offset="0%" stop-color="#0f766e" />
      <stop offset="100%" stop-color="#0ea5e9" />
    </linearGradient>
  </defs>
  <rect x="2" y="2" width="60" height="60" rx="14" fill="url(#bg)" />
  <path d="M17 18h30a5 5 0 0 1 5 5v14a5 5 0 0 1-5 5H32l-7 7v-7h-8a5 5 0 0 1-5-5V23a5 5 0 0 1 5-5z" fill="#ffffff" />
  <circle cx="25" cy="30" r="2.6" fill="#0f766e" />
  <circle cx="33" cy="30" r="2.6" fill="#0f766e" />
  <circle cx="41" cy="30" r="2.6" fill="#0f766e" />
  <path d="M50 14l1.8 3.8 4.2 1.2-4.2 1.2-1.8 3.8-1.8-3.8-4.2-1.2 4.2-1.2L50 14z" fill="#fef08a" />
</svg>
